HIERARCHY
ROOT joint_0
{
	OFFSET 0.000000 0.000000 0.000000
	CHANNELS 6 Xposition Yposition Zposition Zrotation Yrotation Xrotation 
	JOINT joint_1
	{
		OFFSET 6.004005 -1.946999 100.587036
		CHANNELS 3 Zrotation Yrotation Xrotation
		JOINT joint_2
		{
			OFFSET -4.601006 -0.824997 91.925903
			CHANNELS 3 Zrotation Yrotation Xrotation
			JOINT joint_3
			{
				OFFSET -5.420998 -1.130005 91.774048
				CHANNELS 3 Zrotation Yrotation Xrotation
				JOINT joint_4
				{
					OFFSET 4.308998 -3.777992 123.473999
					CHANNELS 3 Zrotation Yrotation Xrotation
					JOINT joint_5
					{
						OFFSET 25.565002 -6.305008 79.437988
						CHANNELS 3 Zrotation Yrotation Xrotation
						End Site
						{
							OFFSET 0.000000 0.000000 0.000000
						}
					}
				}
				JOINT joint_6
				{
					OFFSET -1.750000 -28.655998 68.557983
					CHANNELS 3 Zrotation Yrotation Xrotation
					JOINT joint_7
					{
						OFFSET -17.692001 -116.544006 -17.244019
						CHANNELS 3 Zrotation Yrotation Xrotation
						JOINT joint_8
						{
							OFFSET 27.063004 -23.640991 -266.895020
							CHANNELS 3 Zrotation Yrotation Xrotation
							JOINT joint_9
							{
								OFFSET 40.722000 -15.761017 -232.488953
								CHANNELS 3 Zrotation Yrotation Xrotation
								End Site
								{
									OFFSET 0.000000 0.000000 0.000000
								}
							}
						}
					}
				}
				JOINT joint_10
				{
					OFFSET 6.593002 24.457001 69.892944
					CHANNELS 3 Zrotation Yrotation Xrotation
					JOINT joint_11
					{
						OFFSET 24.311996 114.920002 -19.872925
						CHANNELS 3 Zrotation Yrotation Xrotation
						JOINT joint_12
						{
							OFFSET 21.081001 15.319000 -268.037964
							CHANNELS 3 Zrotation Yrotation Xrotation
							JOINT joint_13
							{
								OFFSET 27.794006 -8.947001 -234.744080
								CHANNELS 3 Zrotation Yrotation Xrotation
								End Site
								{
									OFFSET 0.000000 0.000000 0.000000
								}
							}
						}
					}
				}
			}
		}
	}
	JOINT joint_14
	{
		OFFSET -6.627998 -80.520004 -98.790039
		CHANNELS 3 Zrotation Yrotation Xrotation
		JOINT joint_15
		{
			OFFSET -43.638000 -13.751999 -502.538971
			CHANNELS 3 Zrotation Yrotation Xrotation
			JOINT joint_16
			{
				OFFSET -39.532999 -9.912994 -398.071007
				CHANNELS 3 Zrotation Yrotation Xrotation
				JOINT joint_17
				{
					OFFSET 174.940004 -34.660995 -75.688002
					CHANNELS 3 Zrotation Yrotation Xrotation
					End Site
					{
						OFFSET 0.000000 0.000000 0.000000
					}
				}
			}
		}
	}
	JOINT joint_18
	{
		OFFSET 12.591003 79.842003 -98.765015
		CHANNELS 3 Zrotation Yrotation Xrotation
		JOINT joint_19
		{
			OFFSET -39.080002 -1.297001 -503.101013
			CHANNELS 3 Zrotation Yrotation Xrotation
			JOINT joint_20
			{
				OFFSET -51.570000 -0.514000 -396.815987
				CHANNELS 3 Zrotation Yrotation Xrotation
				JOINT joint_21
				{
					OFFSET 178.987999 -11.521999 -73.244003
					CHANNELS 3 Zrotation Yrotation Xrotation
					End Site
					{
						OFFSET 0.000000 0.000000 0.000000
					}
				}
			}
		}
	}
}
MOTION
Frames: 10
Frame Time: 0.016667
-1928.837280 917.267212 1049.233032 8.554802 7.394268 2.334786 3.708717 -0.352887 -3.533554 2.781897 0.007626 0.680829 2.459389 -0.204158 -0.680311 -1.094565 -9.316724 0.140574 0.000000 0.000000 0.000000 2.358326 4.995190 -1.216423 -1.387564 5.583033 -1.367430 -0.995512 -2.072711 -5.746622 0.000000 0.000000 0.000000 1.458007 3.313032 3.434758 -0.403482 4.513864 -2.769611 0.542275 -2.067720 6.048170 0.000000 0.000000 0.000000 -0.650979 -8.208357 -2.879112 -3.237778 51.647523 5.238318 1.296310 16.483915 3.481221 0.000000 0.000000 0.000000 -1.142389 -33.410874 -7.072473 0.886521 38.939441 4.726092 4.909804 -6.450364 1.396475 0.000000 0.000000 0.000000 
-1905.288696 919.988464 1048.366943 7.776794 7.199497 3.314608 4.026567 0.347459 -4.691225 2.792708 -0.205229 0.949275 2.369643 -0.036564 -0.794137 -1.128471 -9.524404 0.192357 0.000000 0.000000 0.000000 2.453277 4.713694 -1.133591 -1.462887 5.354285 -1.369655 -0.921451 -3.872950 -5.969310 0.000000 0.000000 0.000000 1.508275 3.199833 2.867312 -0.310718 4.124184 -2.140531 0.548467 -1.767654 5.976660 0.000000 0.000000 0.000000 -0.242545 -11.315896 -5.085469 -3.088437 57.987958 6.050990 2.124517 17.913967 3.715898 0.000000 0.000000 0.000000 -1.127711 -31.917268 -8.168142 1.445448 39.666781 4.940220 5.739789 -8.015745 1.608397 0.000000 0.000000 0.000000 
-1882.848511 920.887146 1048.848999 7.090533 7.252837 3.822946 4.216978 0.827311 -5.350462 2.755666 -0.323145 1.101768 2.262597 0.044970 -0.884360 -1.121517 -9.665943 0.141849 0.000000 0.000000 0.000000 2.421677 4.374212 -1.083851 -1.522870 4.981716 -0.973696 -0.917828 -5.610544 -6.333811 0.000000 0.000000 0.000000 1.349226 2.931815 2.538555 -0.233959 3.712705 -1.699814 0.574115 -1.148296 6.136409 0.000000 0.000000 0.000000 0.109104 -14.523353 -6.539904 -2.628449 63.136779 7.114952 4.186011 17.017530 3.692999 0.000000 0.000000 0.000000 -1.290272 -30.618944 -8.507046 1.818624 39.848167 4.939996 6.238166 -8.970607 1.735366 0.000000 0.000000 0.000000 
-1861.293091 920.472656 1050.614014 6.387154 7.486437 4.036310 4.307436 1.147854 -5.738149 2.701606 -0.370679 1.200666 2.167217 0.074006 -0.963899 -1.082456 -9.767411 0.012242 0.000000 0.000000 0.000000 2.289434 3.970105 -0.991701 -1.566087 4.493978 -0.317517 -0.950529 -7.370021 -6.753693 0.000000 0.000000 0.000000 1.032648 2.542831 2.324819 -0.178829 3.237992 -1.285128 0.604038 -0.193701 6.450501 0.000000 0.000000 0.000000 0.309298 -18.064587 -7.518870 -1.971572 67.750538 8.319803 7.187133 14.186172 3.628903 0.000000 0.000000 0.000000 -1.582363 -29.424621 -8.295556 2.083482 39.669522 4.699459 6.494354 -9.610183 1.790682 0.000000 0.000000 0.000000 
-1839.464233 919.743164 1053.593018 5.756455 7.754210 4.159487 4.262058 1.351945 -6.012404 2.612475 -0.395036 1.293612 2.060019 0.085378 -1.015894 -1.028036 -9.791341 -0.123841 0.000000 0.000000 0.000000 2.157948 3.618320 -0.887406 -1.598069 4.056783 0.325726 -0.969388 -9.047932 -7.043022 0.000000 0.000000 0.000000 0.734550 2.143153 2.196132 -0.161936 2.786083 -0.971642 0.623734 0.856083 6.830277 0.000000 0.000000 0.000000 0.215147 -21.615582 -8.207212 -1.286138 71.390904 9.251771 9.707636 10.936629 3.647340 0.000000 0.000000 0.000000 -1.825958 -28.013589 -8.028469 2.263895 38.959450 4.500068 6.582016 -9.939173 1.800757 0.000000 0.000000 0.000000 
-1816.436035 919.433960 1057.968994 5.184321 7.976298 4.269542 4.072391 1.413385 -6.165998 2.491723 -0.413484 1.369633 1.937216 0.108179 -1.032540 -0.961123 -9.679654 -0.227127 0.000000 0.000000 0.000000 2.092419 3.395899 -0.837438 -1.617002 3.767473 0.803210 -0.941419 -10.546728 -7.087800 0.000000 0.000000 0.000000 0.584452 1.801175 2.116721 -0.189325 2.409853 -0.834466 0.634632 1.929365 7.288889 0.000000 0.000000 0.000000 -0.118644 -24.940336 -8.710689 -0.624328 73.751391 9.806542 11.087653 7.952244 3.635151 0.000000 0.000000 0.000000 -1.857161 -26.086650 -7.986860 2.375156 37.404288 4.577512 6.535796 -9.926534 1.780640 0.000000 0.000000 0.000000 
-1792.643555 919.180176 1063.775024 4.553049 8.198135 4.241514 3.777796 1.336153 -6.064324 2.373744 -0.423008 1.380041 1.836892 0.139711 -1.025878 -0.875052 -9.449647 -0.330756 0.000000 0.000000 0.000000 2.058345 3.258658 -0.826477 -1.613691 3.565064 1.205861 -0.874998 -11.904824 -6.957274 0.000000 0.000000 0.000000 0.517891 1.478089 2.075702 -0.259447 2.065336 -0.808637 0.635750 3.135442 7.830079 0.000000 0.000000 0.000000 -0.552074 -28.138208 -8.899079 0.095829 74.932939 10.293679 11.876451 4.752960 3.595915 0.000000 0.000000 0.000000 -1.711294 -23.728109 -7.914994 2.418960 35.015568 4.804010 6.333429 -9.524657 1.727075 0.000000 0.000000 0.000000 
-1768.843384 918.532410 1069.963013 4.031712 8.400885 4.105653 3.454597 1.280742 -5.770488 2.222902 -0.435784 1.318818 1.714064 0.168670 -0.996460 -0.811845 -9.248142 -0.385121 0.000000 0.000000 0.000000 2.034319 3.186323 -0.792168 -1.610411 3.443906 1.519961 -0.794851 -13.170874 -6.772925 0.000000 0.000000 0.000000 0.458660 1.161767 2.124208 -0.320366 1.760063 -0.839447 0.633475 4.051843 8.231666 0.000000 0.000000 0.000000 -1.087404 -31.182350 -8.708813 0.731501 75.038616 10.582065 12.118728 1.872711 3.497305 0.000000 0.000000 0.000000 -1.521216 -21.374850 -7.681953 2.344150 32.566637 4.927117 5.973651 -8.700895 1.643705 0.000000 0.000000 0.000000 
-1745.633545 917.166321 1076.046021 3.779485 8.611641 3.942569 3.102226 1.283099 -5.438311 2.000626 -0.407381 1.228620 1.540867 0.173561 -0.932273 -0.808106 -9.181662 -0.326719 0.000000 0.000000 0.000000 2.013433 3.162600 -0.693754 -1.627702 3.401462 1.723319 -0.719493 -14.410248 -6.623185 0.000000 0.000000 0.000000 0.344562 0.841084 2.338685 -0.326376 1.525212 -0.960587 0.646500 4.333764 8.401077 0.000000 0.000000 0.000000 -1.785667 -34.108711 -8.136286 1.132562 74.059158 10.448051 11.650036 -0.180708 3.274471 0.000000 0.000000 0.000000 -1.436706 -19.402821 -7.219964 2.126246 30.635714 4.743845 5.450668 -7.448565 1.528928 0.000000 0.000000 0.000000 
-1722.741943 915.244385 1082.430054 3.728530 8.842788 3.750815 2.684739 1.277921 -5.060935 1.722400 -0.330276 1.118265 1.340370 0.158528 -0.831473 -0.847943 -9.189479 -0.171422 0.000000 0.000000 0.000000 2.002843 3.193089 -0.565652 -1.654963 3.434925 1.826935 -0.640230 -15.607778 -6.477907 0.000000 0.000000 0.000000 0.207574 0.517141 2.705583 -0.292504 1.359112 -1.202973 0.677362 4.138823 8.451382 0.000000 0.000000 0.000000 -2.586218 -36.830028 -7.252506 1.284454 71.815050 9.927967 10.485162 -1.393001 2.908561 0.000000 0.000000 0.000000 -1.438215 -17.659086 -6.558602 1.802526 28.927422 4.329821 4.782843 -5.784016 1.389053 0.000000 0.000000 0.000000 
